<svg id="visual" viewBox="0 0 900 600" width="900" height="600" xmlns="http://www.w3.org/2000/svg" xmlns:xlink="http://www.w3.org/1999/xlink" version="1.1"><rect x="0" y="0" width="900" height="600" fill="#cfebfa"></rect><path d="M0 359L39 359L39 284L78 284L78 267L117 267L117 267L157 267L157 229L196 229L196 288L235 288L235 336L274 336L274 291L313 291L313 286L352 286L352 262L391 262L391 293L430 293L430 308L470 308L470 229L509 229L509 369L548 369L548 312L587 312L587 255L626 255L626 360L665 360L665 299L704 299L704 262L743 262L743 303L783 303L783 335L822 335L822 269L861 269L861 371L900 371L900 237L900 601L900 601L861 601L861 601L822 601L822 601L783 601L783 601L743 601L743 601L704 601L704 601L665 601L665 601L626 601L626 601L587 601L587 601L548 601L548 601L509 601L509 601L470 601L470 601L430 601L430 601L391 601L391 601L352 601L352 601L313 601L313 601L274 601L274 601L235 601L235 601L196 601L196 601L157 601L157 601L117 601L117 601L78 601L78 601L39 601L39 601L0 601Z" fill="#0965c1"></path><path d="M0 373L39 373L39 367L78 367L78 410L117 410L117 385L157 385L157 380L196 380L196 362L235 362L235 374L274 374L274 412L313 412L313 359L352 359L352 448L391 448L391 405L430 405L430 406L470 406L470 440L509 440L509 343L548 343L548 411L587 411L587 444L626 444L626 369L665 369L665 433L704 433L704 376L743 376L743 342L783 342L783 345L822 345L822 392L861 392L861 420L900 420L900 448L900 601L900 601L861 601L861 601L822 601L822 601L783 601L783 601L743 601L743 601L704 601L704 601L665 601L665 601L626 601L626 601L587 601L587 601L548 601L548 601L509 601L509 601L470 601L470 601L430 601L430 601L391 601L391 601L352 601L352 601L313 601L313 601L274 601L274 601L235 601L235 601L196 601L196 601L157 601L157 601L117 601L117 601L78 601L78 601L39 601L39 601L0 601Z" fill="#04509c"></path><path d="M0 516L39 516L39 452L78 452L78 464L117 464L117 479L157 479L157 440L196 440L196 464L235 464L235 436L274 436L274 486L313 486L313 471L352 471L352 499L391 499L391 510L430 510L430 465L470 465L470 461L509 461L509 500L548 500L548 491L587 491L587 511L626 511L626 524L665 524L665 477L704 477L704 512L743 512L743 459L783 459L783 461L822 461L822 441L861 441L861 476L900 476L900 439L900 601L900 601L861 601L861 601L822 601L822 601L783 601L783 601L743 601L743 601L704 601L704 601L665 601L665 601L626 601L626 601L587 601L587 601L548 601L548 601L509 601L509 601L470 601L470 601L430 601L430 601L391 601L391 601L352 601L352 601L313 601L313 601L274 601L274 601L235 601L235 601L196 601L196 601L157 601L157 601L117 601L117 601L78 601L78 601L39 601L39 601L0 601Z" fill="#013c78"></path></svg>