<svg id="visual" viewBox="0 0 900 600" width="900" height="600" xmlns="http://www.w3.org/2000/svg" xmlns:xlink="http://www.w3.org/1999/xlink" version="1.1"><rect x="0" y="0" width="900" height="600" fill="#ffffff"></rect><defs><linearGradient id="grad1_0" x1="33.3%" y1="0%" x2="100%" y2="100%"><stop offset="20%" stop-color="#0965c1" stop-opacity="1"></stop><stop offset="80%" stop-color="#0965c1" stop-opacity="1"></stop></linearGradient></defs><defs><linearGradient id="grad1_1" x1="33.3%" y1="0%" x2="100%" y2="100%"><stop offset="20%" stop-color="#0965c1" stop-opacity="1"></stop><stop offset="80%" stop-color="#7b95d6" stop-opacity="1"></stop></linearGradient></defs><defs><linearGradient id="grad1_2" x1="33.3%" y1="0%" x2="100%" y2="100%"><stop offset="20%" stop-color="#bfc8eb" stop-opacity="1"></stop><stop offset="80%" stop-color="#7b95d6" stop-opacity="1"></stop></linearGradient></defs><defs><linearGradient id="grad1_3" x1="33.3%" y1="0%" x2="100%" y2="100%"><stop offset="20%" stop-color="#bfc8eb" stop-opacity="1"></stop><stop offset="80%" stop-color="#ffffff" stop-opacity="1"></stop></linearGradient></defs><defs><linearGradient id="grad2_0" x1="0%" y1="0%" x2="66.7%" y2="100%"><stop offset="20%" stop-color="#0965c1" stop-opacity="1"></stop><stop offset="80%" stop-color="#0965c1" stop-opacity="1"></stop></linearGradient></defs><defs><linearGradient id="grad2_1" x1="0%" y1="0%" x2="66.7%" y2="100%"><stop offset="20%" stop-color="#7b95d6" stop-opacity="1"></stop><stop offset="80%" stop-color="#0965c1" stop-opacity="1"></stop></linearGradient></defs><defs><linearGradient id="grad2_2" x1="0%" y1="0%" x2="66.7%" y2="100%"><stop offset="20%" stop-color="#7b95d6" stop-opacity="1"></stop><stop offset="80%" stop-color="#bfc8eb" stop-opacity="1"></stop></linearGradient></defs><defs><linearGradient id="grad2_3" x1="0%" y1="0%" x2="66.7%" y2="100%"><stop offset="20%" stop-color="#ffffff" stop-opacity="1"></stop><stop offset="80%" stop-color="#bfc8eb" stop-opacity="1"></stop></linearGradient></defs><g transform="translate(900, 0)"><path d="M0 270.4C-20.1 268.7 -40.1 267 -59.6 261.3C-79.1 255.5 -98 245.7 -111.1 230.6C-124.1 215.6 -131.2 195.3 -146.5 183.7C-161.8 172.1 -185.2 169.2 -196.2 156.5C-207.2 143.8 -205.8 121.4 -217.1 104.6C-228.5 87.8 -252.6 76.7 -263.6 60.2C-274.6 43.7 -272.5 21.8 -270.4 0L0 0Z" fill="#dfe3f5"></path><path d="M0 202.8C-15.1 201.5 -30.1 200.3 -44.7 196C-59.3 191.6 -73.5 184.3 -83.3 173C-93.1 161.7 -98.4 146.5 -109.9 137.8C-121.4 129.1 -138.9 126.9 -147.2 117.4C-155.4 107.9 -154.3 91 -162.9 78.4C-171.4 65.8 -189.5 57.5 -197.7 45.1C-206 32.8 -204.4 16.4 -202.8 0L0 0Z" fill="#9eaee1"></path><path d="M0 135.2C-10 134.4 -20.1 133.5 -29.8 130.6C-39.6 127.8 -49 122.8 -55.5 115.3C-62.1 107.8 -65.6 97.7 -73.3 91.9C-80.9 86.1 -92.6 84.6 -98.1 78.2C-103.6 71.9 -102.9 60.7 -108.6 52.3C-114.2 43.9 -126.3 38.3 -131.8 30.1C-137.3 21.8 -136.3 10.9 -135.2 0L0 0Z" fill="#537ccc"></path><path d="M0 67.6C-5 67.2 -10 66.8 -14.9 65.3C-19.8 63.9 -24.5 61.4 -27.8 57.7C-31 53.9 -32.8 48.8 -36.6 45.9C-40.5 43 -46.3 42.3 -49.1 39.1C-51.8 36 -51.4 30.3 -54.3 26.1C-57.1 21.9 -63.2 19.2 -65.9 15C-68.7 10.9 -68.1 5.5 -67.6 0L0 0Z" fill="#0965c1"></path></g><g transform="translate(0, 600)"><path d="M0 -270.4C15.2 -248.5 30.5 -226.5 51.6 -226.2C72.8 -225.8 99.8 -247.1 116.7 -242.4C133.7 -237.6 140.6 -206.9 149 -186.9C157.4 -166.8 167.4 -157.3 186.9 -149C206.3 -140.7 235.3 -133.5 243.6 -117.3C252 -101.2 239.8 -76 240.8 -55C241.8 -33.9 256.1 -17 270.4 0L0 0Z" fill="#dfe3f5"></path><path d="M0 -202.8C11.4 -186.4 22.9 -169.9 38.7 -169.6C54.6 -169.4 74.8 -185.3 87.5 -181.8C100.3 -178.2 105.4 -155.2 111.8 -140.1C118.1 -125.1 125.6 -118 140.1 -111.8C154.7 -105.5 176.5 -100.1 182.7 -88C189 -75.9 179.8 -57 180.6 -41.2C181.4 -25.4 192.1 -12.7 202.8 0L0 0Z" fill="#9eaee1"></path><path d="M0 -135.2C7.6 -124.2 15.2 -113.3 25.8 -113.1C36.4 -112.9 49.9 -123.5 58.4 -121.2C66.8 -118.8 70.3 -103.5 74.5 -93.4C78.7 -83.4 83.7 -78.7 93.4 -74.5C103.2 -70.3 117.6 -66.7 121.8 -58.7C126 -50.6 119.9 -38 120.4 -27.5C120.9 -17 128.1 -8.5 135.2 0L0 0Z" fill="#537ccc"></path><path d="M0 -67.6C3.8 -62.1 7.6 -56.6 12.9 -56.5C18.2 -56.5 24.9 -61.8 29.2 -60.6C33.4 -59.4 35.1 -51.7 37.3 -46.7C39.4 -41.7 41.9 -39.3 46.7 -37.3C51.6 -35.2 58.8 -33.4 60.9 -29.3C63 -25.3 59.9 -19 60.2 -13.7C60.5 -8.5 64 -4.2 67.6 0L0 0Z" fill="#0965c1"></path></g></svg>