<svg id="visual" viewBox="0 0 900 600" width="900" height="600" xmlns="http://www.w3.org/2000/svg" xmlns:xlink="http://www.w3.org/1999/xlink" version="1.1"><rect x="0" y="0" width="900" height="600" fill="#f8f8ff"></rect><defs><linearGradient id="grad1_0" x1="33.3%" y1="0%" x2="100%" y2="100%"><stop offset="20%" stop-color="#0965c1" stop-opacity="1"></stop><stop offset="80%" stop-color="#0965c1" stop-opacity="1"></stop></linearGradient></defs><defs><linearGradient id="grad1_1" x1="33.3%" y1="0%" x2="100%" y2="100%"><stop offset="20%" stop-color="#0965c1" stop-opacity="1"></stop><stop offset="80%" stop-color="#7d92d6" stop-opacity="1"></stop></linearGradient></defs><defs><linearGradient id="grad1_2" x1="33.3%" y1="0%" x2="100%" y2="100%"><stop offset="20%" stop-color="#bec3ea" stop-opacity="1"></stop><stop offset="80%" stop-color="#7d92d6" stop-opacity="1"></stop></linearGradient></defs><defs><linearGradient id="grad1_3" x1="33.3%" y1="0%" x2="100%" y2="100%"><stop offset="20%" stop-color="#bec3ea" stop-opacity="1"></stop><stop offset="80%" stop-color="#f8f8ff" stop-opacity="1"></stop></linearGradient></defs><defs><linearGradient id="grad2_0" x1="0%" y1="0%" x2="66.7%" y2="100%"><stop offset="20%" stop-color="#0965c1" stop-opacity="1"></stop><stop offset="80%" stop-color="#0965c1" stop-opacity="1"></stop></linearGradient></defs><defs><linearGradient id="grad2_1" x1="0%" y1="0%" x2="66.7%" y2="100%"><stop offset="20%" stop-color="#7d92d6" stop-opacity="1"></stop><stop offset="80%" stop-color="#0965c1" stop-opacity="1"></stop></linearGradient></defs><defs><linearGradient id="grad2_2" x1="0%" y1="0%" x2="66.7%" y2="100%"><stop offset="20%" stop-color="#7d92d6" stop-opacity="1"></stop><stop offset="80%" stop-color="#bec3ea" stop-opacity="1"></stop></linearGradient></defs><defs><linearGradient id="grad2_3" x1="0%" y1="0%" x2="66.7%" y2="100%"><stop offset="20%" stop-color="#f8f8ff" stop-opacity="1"></stop><stop offset="80%" stop-color="#bec3ea" stop-opacity="1"></stop></linearGradient></defs><g transform="translate(900, 0)"><path d="M0 459.7C-34.1 452.8 -68.2 445.8 -99.2 434.8C-130.3 423.8 -158.2 408.8 -192.2 399.1C-226.2 389.4 -266.1 385 -286.6 359.4C-307.1 333.8 -308.1 287 -318.2 253.8C-328.3 220.5 -347.6 200.9 -369.4 177.9C-391.2 154.9 -415.5 128.6 -430.9 98.4C-446.4 68.1 -453 34.1 -459.7 0L0 0Z" fill="#dcddf5"></path><path d="M0 344.8C-25.6 339.6 -51.2 334.3 -74.4 326.1C-97.7 317.9 -118.7 306.6 -144.2 299.3C-169.6 292.1 -199.6 288.8 -215 269.6C-230.3 250.4 -231.1 215.2 -238.7 190.3C-246.3 165.4 -260.7 150.7 -277 133.4C-293.4 116.2 -311.6 96.4 -323.2 73.8C-334.8 51.1 -339.8 25.6 -344.8 0L0 0Z" fill="#9faae0"></path><path d="M0 229.9C-17.1 226.4 -34.1 222.9 -49.6 217.4C-65.1 211.9 -79.1 204.4 -96.1 199.6C-113.1 194.7 -133.1 192.5 -143.3 179.7C-153.5 166.9 -154 143.5 -159.1 126.9C-164.2 110.3 -173.8 100.4 -184.7 88.9C-195.6 77.4 -207.7 64.3 -215.5 49.2C-223.2 34.1 -226.5 17 -229.9 0L0 0Z" fill="#557bcb"></path><path d="M0 114.9C-8.5 113.2 -17.1 111.4 -24.8 108.7C-32.6 106 -39.6 102.2 -48.1 99.8C-56.5 97.4 -66.5 96.3 -71.7 89.9C-76.8 83.5 -77 71.7 -79.6 63.4C-82.1 55.1 -86.9 50.2 -92.3 44.5C-97.8 38.7 -103.9 32.1 -107.7 24.6C-111.6 17 -113.3 8.5 -114.9 0L0 0Z" fill="#0965c1"></path></g><g transform="translate(0, 600)"><path d="M0 -459.7C34.5 -458.5 69 -457.3 101.9 -446.5C134.8 -435.7 166 -415.2 187 -388.3C208 -361.4 218.8 -328 250.6 -314.3C282.5 -300.6 335.4 -306.6 359.4 -286.6C383.4 -266.7 378.5 -220.8 385.6 -185.7C392.7 -150.6 411.7 -126.4 426 -97.2C440.4 -68.1 450 -34 459.7 0L0 0Z" fill="#dcddf5"></path><path d="M0 -344.8C25.9 -343.9 51.8 -343 76.4 -334.9C101.1 -326.8 124.5 -311.4 140.3 -291.2C156 -271 164.1 -246 188 -235.7C211.9 -225.4 251.6 -229.9 269.6 -215C287.6 -200 283.9 -165.6 289.2 -139.3C294.5 -113 308.8 -94.8 319.5 -72.9C330.3 -51.1 337.5 -25.5 344.8 0L0 0Z" fill="#9faae0"></path><path d="M0 -229.9C17.3 -229.3 34.5 -228.7 51 -223.3C67.4 -217.8 83 -207.6 93.5 -194.2C104 -180.7 109.4 -164 125.3 -157.1C141.2 -150.3 167.7 -153.3 179.7 -143.3C191.7 -133.3 189.3 -110.4 192.8 -92.9C196.3 -75.3 205.9 -63.2 213 -48.6C220.2 -34 225 -17 229.9 0L0 0Z" fill="#557bcb"></path><path d="M0 -114.9C8.6 -114.6 17.3 -114.3 25.5 -111.6C33.7 -108.9 41.5 -103.8 46.8 -97.1C52 -90.3 54.7 -82 62.7 -78.6C70.6 -75.1 83.9 -76.6 89.9 -71.7C95.9 -66.7 94.6 -55.2 96.4 -46.4C98.2 -37.7 102.9 -31.6 106.5 -24.3C110.1 -17 112.5 -8.5 114.9 0L0 0Z" fill="#0965c1"></path></g></svg>